<?xml version="1.0" standalone="no"?>
<!DOCTYPE svg PUBLIC "-//W3C//DTD SVG 20010904//EN"
 "http://www.w3.org/TR/2001/REC-SVG-20010904/DTD/svg10.dtd">
<svg version="1.0" xmlns="http://www.w3.org/2000/svg"
 width="128.000000pt" height="128.000000pt" viewBox="0 0 128.000000 128.000000"
 preserveAspectRatio="xMidYMid meet">

<g transform="translate(0.000000,128.000000) scale(0.100000,-0.100000)"
fill="#000000" stroke="none">
<path d="M160 640 l0 -600 40 0 40 0 0 240 0 240 428 0 c441 0 452 1 452 39 0
9 -47 76 -105 149 l-105 132 105 133 c58 72 105 139 105 148 0 38 -11 39 -452
39 l-428 0 0 40 0 40 -40 0 -40 0 0 -600z"/>
</g>
</svg>
