<svg xmlns="http://www.w3.org/2000/svg" width="256" height="256" viewBox="0 0 256 256" version="1.1"><path d="M 114.500 65.649 C 90.069 70.833, 70.701 90.473, 65.583 115.254 C 63.586 124.922, 63.586 131.078, 65.583 140.746 C 70.772 165.868, 90.207 185.325, 115.208 190.427 C 124.932 192.412, 131.068 192.412, 140.792 190.427 C 165.793 185.325, 185.228 165.868, 190.417 140.746 C 192.410 131.099, 192.414 124.922, 190.435 115.340 C 183.212 80.370, 149.398 58.243, 114.500 65.649" stroke="none" fill="#3c84dc" fill-rule="evenodd"/><path d="M 111 0.656 C 57.328 8.893, 16.414 45.833, 3.185 98 C 0.750 107.603, 0.523 110.166, 0.529 128 C 0.535 144.902, 0.836 148.699, 2.793 156.500 C 9.122 181.734, 19.841 200.913, 37.464 218.536 C 55.087 236.159, 74.266 246.878, 99.500 253.207 C 107.307 255.165, 111.084 255.465, 128 255.465 C 144.916 255.465, 148.693 255.165, 156.500 253.207 C 181.734 246.878, 200.913 236.159, 218.536 218.536 C 237.071 200.001, 248.944 177.928, 253.564 153.414 C 254.488 148.511, 255.639 143.719, 256.122 142.764 C 257.379 140.278, 257.264 111.719, 256 112.500 C 255.424 112.856, 254.997 111.926, 254.993 110.309 C 254.989 108.764, 254.077 103.675, 252.966 99 C 247.253 74.961, 236.161 55.131, 218.528 37.436 C 199.432 18.272, 176.095 6.059, 150.074 1.611 C 141.471 0.141, 118.083 -0.431, 111 0.656 M 114.500 65.649 C 90.069 70.833, 70.701 90.473, 65.583 115.254 C 63.586 124.922, 63.586 131.078, 65.583 140.746 C 70.772 165.868, 90.207 185.325, 115.208 190.427 C 124.932 192.412, 131.068 192.412, 140.792 190.427 C 165.793 185.325, 185.228 165.868, 190.417 140.746 C 192.410 131.099, 192.414 124.922, 190.435 115.340 C 183.212 80.370, 149.398 58.243, 114.500 65.649 M 0.402 128 C 0.402 136.525, 0.556 140.012, 0.743 135.750 C 0.931 131.488, 0.931 124.513, 0.743 120.250 C 0.556 115.987, 0.402 119.475, 0.402 128" stroke="none" fill="#539be3" fill-rule="evenodd"/></svg>