<?xml version="1.0" standalone="no"?>
<!DOCTYPE svg PUBLIC "-//W3C//DTD SVG 20010904//EN"
 "http://www.w3.org/TR/2001/REC-SVG-20010904/DTD/svg10.dtd">
<svg version="1.0" xmlns="http://www.w3.org/2000/svg"
 width="64.000000pt" height="64.000000pt" viewBox="0 0 64.000000 64.000000"
 preserveAspectRatio="xMidYMid meet">

<g transform="translate(0.000000,64.000000) scale(0.100000,-0.100000)"
fill="#000000" stroke="none">
<path d="M267 633 c-4 -3 -7 -107 -7 -230 0 -216 1 -223 20 -223 19 0 20 7 20
135 l0 135 104 0 c58 0 108 4 111 10 3 5 -1 23 -10 40 -14 27 -14 33 0 66 8
20 12 40 9 45 -3 5 -52 9 -109 9 -58 0 -107 4 -110 10 -7 12 -19 13 -28 3z"/>
<path d="M180 115 c-5 -14 -13 -37 -16 -49 -3 -13 -15 -26 -26 -29 -11 -3 -18
-12 -16 -19 7 -19 309 -19 316 0 2 7 -5 16 -15 18 -13 4 -25 22 -34 52 l-15
47 -92 3 c-91 3 -92 2 -102 -23z"/>
</g>
</svg>
